PathFileType	4	(X/Y/Z)	C:\Users\WrightLab\Desktop\Jo\P5V25.trc
DataRate	CameraRate	NumFrames	NumMarkers	Units	OrigDataRate	OrigDataStartFrame	OrigNumFrames
100.00	100.00	       28	19	mm	100.00	1	       790
Frame#	Time	Headset_Front			Headset_Back			Headset_Left			Headset_Right			Left_Shoulder			Right_Shoulder			Sternum			C7			Left Elbow			Right Elbow			Left Wrist			Right Wrist			Left ASIS			Right ASIS			S2			Left Knee			Right Knee			Left Ankle			Right Ankle			
		X1	Y1	Z1	X2	Y2	Z2	X3	Y3	Z3	X4	Y4	Z4	X5	Y5	Z5	X6	Y6	Z6	X7	Y7	Z7	X8	Y8	Z8	X9	Y9	Z9	X10	Y10	Z10	X11	Y11	Z11	X12	Y12	Z12	X13	Y13	Z13	X14	Y14	Z14	X15	Y15	Z15	X16	Y16	Z16	X17	Y17	Z17	X18	Y18	Z18	X19	Y19	Z19	

1	0.000																												-605.26984	1173.01929	-1367.89404				-535.83252	1071.21924	-1160.99902	-168.40947	915.84235	-1306.18738	-442.90839	937.57666	-1270.69385				-145.77110	470.41241	-1355.94299	-514.65906	471.36783	-1314.14417				-502.72684	68.59238	-1396.22400	
2	0.010																												-605.33990	1173.01160	-1367.92456				-535.69086	1071.11157	-1161.29492	-168.34453	915.85577	-1306.13855	-443.11084	937.30286	-1270.98352				-145.77820	470.40671	-1355.98279	-514.78479	471.35541	-1314.19312				-502.18076	66.89040	-1399.14453	
3	0.020																												-605.40851	1173.03174	-1367.92627				-535.70636	1071.05493	-1161.28882	-168.24263	915.58063	-1305.00378	-443.09714	937.33856	-1271.26270				-145.80542	470.36307	-1356.13245	-515.41675	472.22253	-1314.48840				-502.18011	66.84444	-1399.13025	
4	0.030																												-605.49939	1173.03650	-1367.95349				-536.03363	1070.39832	-1161.29968	-168.15909	915.89203	-1305.99915	-443.14191	937.27588	-1271.29016				-145.78836	470.39279	-1356.03906	-515.90466	471.79947	-1314.17505				-502.17114	66.89966	-1399.10217	
5	0.040																												-605.94861	1173.60437	-1368.74585				-536.02905	1070.37378	-1161.29712	-168.10808	915.91132	-1305.96069	-443.83698	937.43787	-1271.51086				-145.80699	470.36911	-1356.14233	-516.51898	471.73901	-1314.47437				-502.79944	68.41621	-1396.51721	
6	0.050																												-606.05939	1173.60303	-1368.80200				-536.00452	1070.32336	-1161.29175	-168.05128	915.93091	-1305.91785	-443.95837	937.27423	-1271.69434				-145.82672	470.33841	-1356.25098	-517.22717	471.72125	-1314.46033				-502.21808	66.73460	-1399.27954	
7	0.060																												-606.19080	1173.59644	-1368.87073				-535.99261	1070.05823	-1161.54883	-167.79417	916.29907	-1305.79138	-443.95837	937.27423	-1271.69434				-145.84686	470.27756	-1356.35730	-517.72943	471.27795	-1313.79114				-502.87241	68.24833	-1396.81409	
8	0.070																												-606.33557	1173.60364	-1368.89917				-536.00641	1070.03662	-1161.54639	-167.72462	916.31256	-1305.73914	-444.06998	937.11176	-1271.65356				-145.87582	470.25336	-1356.51990	-517.89075	471.59973	-1314.00537				-502.31519	66.57539	-1399.69104	
9	0.080																												-606.56738	1173.24243	-1368.16370				-536.09564	1069.87744	-1161.81421	-167.63319	916.35693	-1305.67004	-444.20105	936.93463	-1271.84302				-145.86444	470.27927	-1356.45850	-517.73071	470.93344	-1313.33093				-502.86499	68.24995	-1396.78003	
10	0.090																												-606.75195	1173.22852	-1368.26819				-536.12311	1069.55615	-1161.84534	-167.53726	916.38782	-1305.59778	-444.29919	936.62415	-1271.73914				-145.89346	470.24460	-1356.61975	-517.80280	471.21243	-1313.61963				-502.90781	68.18960	-1396.96387	
11	0.100																												-607.17419	1173.06665	-1367.56531				-536.16156	1069.54468	-1161.84399	-167.42760	916.43323	-1305.51501	-444.29919	936.62415	-1271.73914				-145.92493	470.20914	-1356.79492	-517.88861	471.12903	-1313.41455				-502.89532	68.17793	-1396.90295	
12	0.110																												-607.31506	1173.07642	-1367.63220				-536.23132	1069.37427	-1161.98804	-167.32738	916.46106	-1305.43958	-444.29919	936.62415	-1271.73914				-145.92474	470.22440	-1356.79626	-518.01379	470.66205	-1313.00146				-502.92972	68.09034	-1397.04077	
13	0.120																												-607.42804	1173.07935	-1367.66345				-536.37653	1069.19299	-1162.12939	-167.22873	917.03394	-1304.53149	-444.85501	936.39697	-1271.92981				-145.95044	470.18152	-1356.93726	-518.83069	470.74045	-1312.86023				-503.51349	69.74873	-1394.28760	
14	0.130																												-607.55243	1173.07410	-1367.72461				-536.50574	1068.98547	-1162.04980	-167.13475	916.53125	-1305.29431	-446.04599	937.56415	-1272.06128				-146.00027	470.13068	-1357.21558	-518.62201	470.30914	-1312.71033				-503.49808	69.78689	-1394.22571	
15	0.140																												-607.99573	1173.20886	-1367.51697				-536.49866	1068.95313	-1162.04639	-167.21852	917.40356	-1304.46826	-446.07138	937.54779	-1272.40759				-146.02377	470.13455	-1357.35083	-518.64069	470.30585	-1312.71753				-503.58585	69.58339	-1394.58191	
16	0.150																												-608.31799	1172.85242	-1366.49927				-536.57440	1068.98987	-1162.04993	-166.44508	917.56305	-1304.09033	-446.32425	937.20734	-1272.78943				-146.11377	469.99826	-1357.84680	-518.89990	470.54785	-1312.75598				-503.54822	69.68012	-1394.43152	
17	0.160																												-608.45209	1172.82568	-1366.61694				-536.63342	1068.84875	-1161.73730	-166.28136	917.13214	-1314.32739	-446.38406	937.14075	-1273.12122				-146.11786	470.02682	-1357.87439	-518.91644	470.54358	-1312.76208				-503.55801	69.59823	-1394.45630	
18	0.170																												-608.59705	1172.82471	-1366.69055				-536.69543	1068.85449	-1161.73767	-165.73561	917.63977	-1315.21887	-446.38406	937.14075	-1273.12122				-146.21997	469.81784	-1358.42896	-519.14502	470.97119	-1312.91956				-503.57858	69.52583	-1394.53357	
19	0.180																												-608.75549	1172.25098	-1365.65295				-536.68335	1068.80261	-1161.73218	-165.16711	917.88007	-1316.56506	-446.38406	937.14075	-1273.12122				-146.82361	470.50931	-1357.31543	-518.93188	470.53873	-1312.76782				-503.59760	69.49657	-1394.61438	
20	0.190																												-608.90790	1172.23987	-1365.77002				-536.68842	1068.77515	-1161.72913	-165.02911	918.11658	-1315.83289	-446.51480	936.95557	-1273.15942				-146.89494	470.37820	-1357.70471	-518.79034	470.91284	-1313.45508				-503.58179	69.54739	-1394.55383	
21	0.200																												-609.04407	1172.20288	-1365.89050				-536.68378	1068.74133	-1161.72559	-164.98007	918.24884	-1315.57849	-446.51480	936.95557	-1273.15942				-146.96935	470.24356	-1358.11108	-519.16174	470.73111	-1313.65503				-503.65408	69.40173	-1394.85278	
22	0.210																												-609.17346	1172.17480	-1365.99231				-536.66455	1068.66968	-1161.71790	-164.92801	918.38861	-1315.30811	-446.70813	936.70349	-1273.59216				-147.10764	470.05569	-1358.87573	-519.21497	471.03046	-1314.41614				-503.66940	69.35368	-1394.91187	
23	0.220																												-609.29871	1172.16699	-1366.07776				-536.70935	1068.68103	-1161.71887	-164.85399	918.53931	-1314.91821	-447.78714	937.00928	-1274.14282				-147.23027	469.86218	-1359.54968	-519.33472	470.58789	-1314.34509				-503.73584	69.22588	-1395.18799	
24	0.230																												-609.42163	1172.16760	-1366.13831				-536.74384	1068.37463	-1161.63892	-164.80351	918.69421	-1314.65845	-447.73474	937.09619	-1274.34741				-147.39667	469.64670	-1360.47119	-519.18463	470.60007	-1315.04858				-503.74417	69.22919	-1395.22754	
25	0.240																												-609.53357	1172.12842	-1366.21497				-536.99921	1068.21863	-1161.80188	-164.79672	918.72949	-1314.62512	-447.72110	937.13190	-1274.62610				-147.42729	469.59128	-1360.63843	-519.46790	470.82681	-1315.51941				-503.76471	69.16057	-1395.30566	
26	0.250																												-609.65082	1172.05969	-1366.28040				-537.12305	1067.94617	-1161.84778	-164.65900	919.55219	-1314.89087	-447.87430	936.94214	-1275.13892				-148.13071	470.32269	-1359.26697	-519.91644	471.17923	-1315.72473				-503.84201	69.04401	-1395.63538	
27	0.260																												-609.84155	1171.98950	-1366.47437				-537.24554	1068.00403	-1161.85339	-164.66048	919.56110	-1314.90002	-447.98590	936.77985	-1275.09839				-148.27197	470.11621	-1360.04517	-519.59491	470.30182	-1315.82227				-503.85202	68.99068	-1395.66833	
28	0.270																												-610.03943	1171.96960	-1366.71606				-537.62421	1067.75464	-1161.93677	-164.66048	919.60028	-1314.90479	-447.98590	936.77985	-1275.09839				-148.62238	470.79974	-1359.89282	-519.90778	470.52383	-1316.23438				-504.83859	70.50354	-1390.89124	
